#!OML:ASF F:\VICON\USERDATA\INSTALL\rory3\rory3.ASF
:FULLY-SPECIFIED
:DEGREES
173
root 1.10048 17.9073 0.715515 -0.961591 1.32319 2.10475
lowerback 9.81898 -1.47039 -4.7323
upperback -0.0914879 -2.40451 1.71104
thorax -5.34103 -1.03722 4.80558
lowerneck -17.3529 -3.58485 -1.7685
upperneck 20.9376 -4.91084 1.63768
head 9.57213 -2.2401 0.208529
rclavicle 2.98177e-015 -4.37326e-015
rhumerus -37.0818 -25.3584 -72.6007
rradius 24.3505
rwrist 5.5688
rhand -17.4421 24.6638
rfingers 7.12502
rthumb 8.80875 -5.13238
lclavicle 2.98177e-015 -4.37326e-015
lhumerus -21.7039 -6.24552 80.3846
lradius 33.0087
lwrist 12.266
lhand -32.025 14.7736
lfingers 7.12502
lthumb -5.27291 44.688
rfemur -28.2936 4.83507 18.7979
rtibia 16.2251
rfoot -10.9912 -15.1648
rtoes 3.56158
lfemur 14.2282 -0.793722 -25.8304
ltibia 15.9128
lfoot -15.0805 -1.69333
ltoes -15.4886
174
root 1.08883 17.8917 0.912483 -1.05765 1.4855 2.19148
lowerback 9.85682 -1.54353 -4.71633
upperback -0.121904 -2.50502 1.66135
thorax -5.38563 -1.08572 4.75997
lowerneck -17.2233 -3.57941 -1.88172
upperneck 20.9526 -4.90023 1.743
head 9.55936 -2.23339 0.267083
rclavicle -2.19409e-014 1.03368e-014
rhumerus -37.3188 -25.3064 -72.5612
rradius 24.4201
rwrist 5.30233
rhand -17.6914 23.8726
rfingers 7.12502
rthumb 8.56812 -5.93355
lclavicle -2.19409e-014 1.03368e-014
lhumerus -21.9736 -6.38049 80.3109
lradius 33.4474
lwrist 12.3077
lhand -32.3913 15.4455
lfingers 7.12502
lthumb -5.62652 45.3508
rfemur -28.3071 3.76665 19.243
rtibia 17.5329
rfoot -9.91391 -13.1295
rtoes 4.56858
lfemur 14.5533 -1.13317 -25.8608
ltibia 16.9116
lfoot -15.1706 -1.93473
ltoes -16.4785
175
root 1.07283 17.8704 1.10316 -1.09313 1.48089 2.13319
lowerback 9.8475 -1.55231 -4.62671
upperback -0.0790746 -2.50585 1.65006
thorax -5.3392 -1.09112 4.69556
lowerneck -17.2949 -3.54541 -1.73664
upperneck 20.7629 -4.86146 1.64215
head 9.49844 -2.21627 0.213962
rclavicle -4.08502e-014 2.10712e-014
rhumerus -37.332 -25.074 -72.8205
rradius 24.7461
rwrist 5.07636
rhand -18.9922 20.8618
rfingers 7.12502
rthumb 7.31263 -8.99185
lclavicle -4.08502e-014 2.10712e-014
lhumerus -21.8545 -6.64461 80.1989
lradius 33.6435
lwrist 12.3505
lhand -32.987 16.8247
lfingers 7.12502
lthumb -6.20165 46.714
rfemur -28.4809 3.17661 19.7324
rtibia 19.0179
rfoot -9.59564 -11.6106
rtoes 4.64404
lfemur 14.8063 -1.39299 -25.7284
ltibia 17.7585
lfoot -14.9687 -2.1618
ltoes -16.5072
176
root 1.06049 17.8483 1.30315 -1.39252 1.40682 1.96657
lowerback 9.94291 -1.53491 -4.42178
upperback 0.107119 -2.45914 1.66944
thorax -5.20909 -1.08109 4.5923
lowerneck -17.6708 -3.50797 -1.56266
upperneck 20.7581 -4.83665 1.57883
head 9.55913 -2.19445 0.160269
rclavicle 3.95085e-015 7.95139e-015
rhumerus -37.2854 -25.2263 -72.8184
rradius 24.7993
rwrist 5.28955
rhand -19.3442 19.5637
rfingers 7.12502
rthumb 6.97292 -10.3014
lclavicle 3.95085e-015 7.95139e-015
lhumerus -21.5151 -6.70003 80.0979
lradius 33.6355
lwrist 12.336
lhand -32.8739 18.1149
lfingers 7.12502
lthumb -6.09245 48.0073
rfemur -28.2729 2.89326 20.2152
rtibia 20.4992
rfoot -9.55405 -10.508
rtoes 3.59856
lfemur 15.4212 -1.64489 -25.5652
ltibia 18.5471
lfoot -14.5945 -2.05971
ltoes -18.3349
177
root 1.05612 17.8298 1.51261 -1.72 1.45303 1.89655
lowerback 10.0351 -1.61796 -4.22535
upperback 0.205852 -2.5488 1.6788
thorax -5.15478 -1.13376 4.50402
lowerneck -17.6445 -3.49971 -1.6442
upperneck 20.7962 -4.8217 1.6518
head 9.57169 -2.1856 0.200975
rclavicle 3.96078e-014 -1.90833e-014
rhumerus -37.3531 -25.311 -72.6573
rradius 24.5515
rwrist 5.24724
rhand -18.9031 20.624
rfingers 7.12502
rthumb 7.39865 -9.22666
lclavicle 3.96078e-014 -1.90833e-014
lhumerus -21.5072 -6.64373 80.0611
lradius 33.4714
lwrist 12.3709
lhand -32.6531 16.105
lfingers 7.12502
lthumb -5.87928 46.0034
rfemur -27.8448 2.58572 20.5162
rtibia 21.8476
rfoot -9.84511 -9.42478
rtoes 2.96402
lfemur 15.9767 -2.07826 -25.6071
ltibia 19.3346
lfoot -14.1392 -3.19425
ltoes -18.8628
178
root 1.04395 17.8186 1.72487 -1.96326 1.65951 2.01649
lowerback 10.2039 -1.71665 -4.31988
upperback 0.134219 -2.69749 1.70419
thorax -5.30378 -1.19829 4.61481
lowerneck -17.3456 -3.51361 -1.91742
upperneck 20.8454 -4.78457 1.7063
head 9.54195 -2.18661 0.274447
rclavicle 1.86609e-014 -4.77083e-015
rhumerus -37.6309 -25.3131 -72.213
rradius 24.1582
rwrist 5.56195
rhand -18.6434 21.4707
rfingers 7.12502
rthumb 7.64937 -8.37097
lclavicle 1.86609e-014 -4.77083e-015
lhumerus -21.9021 -6.47846 80.1742
lradius 33.4035
lwrist 12.1438
lhand -32.5752 13.786
lfingers 7.12502
lthumb -5.80413 43.6865
rfemur -27.426 2.18098 20.6619
rtibia 23.1011
rfoot -10.0444 -8.36798
rtoes 1.66376
lfemur 16.3581 -2.59031 -25.7746
ltibia 19.9665
lfoot -13.2712 -3.88995
ltoes -18.2506
179
root 1.01647 17.8255 1.94053 -2.00466 2.00553 2.03202
lowerback 10.0659 -1.83769 -4.51883
upperback 0.0592707 -2.87186 1.80916
thorax -5.27147 -1.27778 4.85747
lowerneck -17.0221 -3.50129 -2.16301
upperneck 20.6583 -4.72615 1.81337
head 9.425 -2.17143 0.366425
rclavicle -1.81391e-014 5.56597e-015
rhumerus -37.8616 -25.3427 -71.7935
rradius 23.9396
rwrist 6.31572
rhand -18.9616 21.1162
rfingers 7.12502
rthumb 7.34226 -8.7364
lclavicle -1.81391e-014 5.56597e-015
lhumerus -22.3174 -6.17804 80.3167
lradius 33.5404
lwrist 11.9101
lhand -32.7246 13.1775
lfingers 7.12502
lthumb -5.94831 43.074
rfemur -27.178 2.09047 20.807
rtibia 24.0881
rfoot -9.06922 -7.79934
rtoes 0.600631
lfemur 16.4606 -3.00382 -25.654
ltibia 20.7741
lfoot -12.3451 -4.51528
ltoes -19.0919
